<?xml version="1.0" standalone="no"?>
<!DOCTYPE svg PUBLIC "-//W3C//DTD SVG 20010904//EN"
 "http://www.w3.org/TR/2001/REC-SVG-20010904/DTD/svg10.dtd">
<svg version="1.0" xmlns="http://www.w3.org/2000/svg"
 width="512.000000pt" height="512.000000pt" viewBox="0 0 512.000000 512.000000"
 preserveAspectRatio="xMidYMid meet">
<metadata>
Created by potrace 1.14, written by Peter Selinger 2001-2017
</metadata>
<g transform="translate(0.000000,512.000000) scale(0.100000,-0.100000)"
fill="#000000" stroke="none">
<path d="M2446 5055 c-40 -16 -79 -43 -119 -82 -32 -32 -547 -546 -1144 -1143
-1213 -1211 -1137 -1127 -1136 -1270 0 -138 -70 -59 1187 -1318 1265 -1266
1184 -1194 1326 -1194 142 0 60 -73 1331 1199 1260 1261 1181 1173 1182 1313
0 93 -23 150 -90 221 -26 28 -542 545 -1145 1149 -864 864 -1107 1102 -1145
1120 -72 34 -171 36 -247 5z m24 -2491 c0 -7 -251 -262 -557 -569 l-557 -556
-538 538 c-296 295 -542 550 -547 564 -7 19 -5 35 5 54 8 15 254 267 547 560
l532 533 557 -556 c307 -306 558 -562 558 -568z m1841 577 c525 -525 539 -540
539 -578 0 -37 -14 -52 -543 -581 l-543 -543 -562 563 -563 562 558 558 c307
307 562 558 567 558 5 0 251 -243 547 -539z"/>
</g>
</svg>
